<svg xmlns="http://www.w3.org/2000/svg" viewBox="0 0 64 64" fill="none" stroke="#000000" stroke-width="1.6" stroke-linecap="round" stroke-linejoin="round">
  <!-- Open book -->
  <path d="M12 16v32c0 1 5 3 10 3h4"/>
  <path d="M52 16v32c0 1-5 3-10 3h-4"/>
  <path d="M26 16h12v32H26z"/>
  <path d="M26 16c0-1.5 1.5-3 6-3s6 1.5 6 3"/>
  <path d="M38 48c0 1.5-1.5 3-6 3s-6-1.5-6-3"/>
  <path d="M26 16H18c-3 0-4 1.5-4 3v26c0 1.5 1 3 4 3h8"/>
  <path d="M38 16h8c3 0 4 1.5 4 3v26c0 1.5-1 3-4 3h-8"/>
  <!-- Figure: head -->
  <circle cx="32" cy="24" r="5"/>
  <!-- Torso/arm -->
  <path d="M29 30v12"/>
  <path d="M35 30v8"/>
  <!-- Hand + pen on book -->
  <path d="M32 36v8"/>
  <path d="M30 41l5-9"/>
  <path d="M36 33l-7 8"/>
  <path d="M34 39l5 3"/>
  <!-- Lines (writing) on page -->
  <path d="M28 40h6"/>
  <path d="M27 44h8"/>
  <path d="M28 48h5"/>
</svg>
