<svg xmlns="http://www.w3.org/2000/svg" viewBox="0 0 32 32" fill="none" stroke="#000" stroke-width="1.5" stroke-linecap="round" stroke-linejoin="round">
  <path d="M6 8v16c0 1 4 2 6 2h2"/>
  <path d="M26 8v16c0 1-4 2-6 2h-2"/>
  <path d="M14 8h4v16h-4z"/>
  <path d="M14 8c0-1 1-2 2-2s2 1 2 2"/>
  <path d="M18 24c0 1-1 2-2 2s-2-1-2-2"/>
  <path d="M14 8h-2c-2 0-2 1-2 2v12c0 1 0 2 2 2h2"/>
  <path d="M18 8h2c2 0 2 1 2 2v12c0 1 0 2-2 2h-2"/>
  <circle cx="16" cy="12" r="2.5"/>
  <path d="M15 15v4"/>
  <path d="M16 18l2-3"/>
  <path d="M14 20h3"/>
</svg>
